<?xml version="1.0" standalone="no"?>
<!DOCTYPE svg PUBLIC "-//W3C//DTD SVG 20010904//EN"
 "http://www.w3.org/TR/2001/REC-SVG-20010904/DTD/svg10.dtd">
<svg version="1.0" xmlns="http://www.w3.org/2000/svg"
 width="640.000000pt" height="640.000000pt" viewBox="0 0 640.000000 640.000000"
 preserveAspectRatio="xMidYMid meet">
<metadata>
Created by potrace 1.14, written by Peter Selinger 2001-2017
</metadata>
<g transform="translate(0.000000,640.000000) scale(0.100000,-0.100000)"
fill="#000000" stroke="none">
<path d="M5170 6363 c-6 -21 -13 -65 -16 -98 -5 -58 -21 -115 -34 -125 -9 -7
-82 -117 -101 -152 -8 -16 -20 -33 -25 -36 -14 -9 -74 -98 -74 -109 0 -5 -13
-24 -30 -43 -16 -19 -29 -40 -30 -46 0 -7 -18 -34 -40 -60 -22 -27 -40 -54
-40 -60 0 -6 -9 -22 -19 -36 -11 -13 -23 -36 -26 -51 -4 -14 -15 -33 -26 -43
-10 -9 -19 -23 -19 -30 0 -7 -12 -27 -27 -45 -28 -33 -73 -122 -73 -144 0 -7
7 -29 15 -49 14 -33 17 -35 40 -24 21 9 32 8 61 -5 65 -31 81 -20 149 111 21
39 44 77 52 83 7 6 13 20 13 30 0 11 9 36 20 56 11 21 20 42 20 48 0 6 8 15
18 22 10 6 31 36 47 67 31 60 69 103 79 88 3 -6 9 -57 11 -114 6 -101 13 -127
34 -114 9 6 75 119 110 189 7 15 17 27 21 27 4 0 13 18 20 40 7 22 19 45 27
51 7 6 13 19 13 28 0 9 14 34 30 55 17 22 30 43 30 48 0 5 11 26 24 47 27 43
209 387 219 414 6 16 -9 17 -228 17 l-234 0 -11 -37z"/>
<path d="M2880 5486 c0 -12 -5 -16 -15 -12 -16 6 -55 -13 -55 -26 0 -3 8 -9
18 -11 9 -3 3 -6 -15 -7 -18 -1 -38 -3 -44 -4 -6 0 -16 -9 -23 -18 -7 -10 -29
-18 -57 -20 -35 -2 -45 -7 -48 -23 -4 -22 -21 -36 -34 -28 -4 3 -6 11 -3 19 3
9 -2 14 -14 14 -13 0 -20 -7 -20 -20 0 -23 0 -23 -37 -9 -30 12 -41 14 -122
25 -39 5 -52 4 -47 -4 4 -7 -6 -13 -28 -17 -46 -9 -76 -39 -76 -75 0 -25 4
-30 25 -30 18 0 25 -5 25 -19 0 -21 38 -54 100 -87 46 -25 50 -31 50 -85 0
-56 29 -89 78 -89 18 0 32 -4 32 -9 0 -15 -32 -22 -45 -11 -10 8 -25 2 -59
-24 -39 -29 -52 -34 -83 -30 -26 4 -34 3 -25 -4 19 -13 -7 -22 -61 -22 -65 0
-83 -9 -101 -48 -16 -33 -19 -35 -31 -19 -11 15 -13 16 -19 2 -9 -24 -32 -18
-67 19 l-32 35 -37 -29 c-39 -31 -50 -29 -70 9 l-12 24 -14 -31 c-11 -26 -19
-32 -44 -32 -16 0 -30 4 -30 9 0 5 -19 14 -42 19 -24 6 -53 14 -65 17 -27 8
-30 -6 -8 -29 8 -8 15 -19 15 -24 0 -11 -40 -47 -62 -55 -19 -7 -25 -33 -9
-39 9 -3 14 -28 12 -60 -1 -11 -9 -18 -21 -18 -22 0 -25 -12 -10 -40 8 -14 4
-25 -16 -49 -14 -17 -29 -29 -33 -27 -4 3 -13 -10 -20 -29 -12 -35 -19 -39
-85 -50 -26 -4 -40 -12 -43 -26 -4 -13 -14 -19 -32 -19 -15 0 -32 -5 -39 -12
-6 -6 -22 -13 -34 -15 -12 -2 -22 -4 -23 -6 -15 -39 -44 -82 -55 -82 -12 0
-16 17 -18 73 -3 77 -14 89 -47 52 -10 -11 -29 -20 -42 -20 -20 0 -26 -9 -22
-36 1 -10 -22 -23 -62 -34 -21 -6 -41 -20 -49 -35 -7 -14 -17 -25 -22 -25 -4
0 -8 -11 -8 -23 0 -13 -3 -27 -7 -30 -11 -12 -9 -72 4 -84 6 -7 19 -13 27 -13
9 0 16 -7 16 -15 0 -17 -30 -35 -60 -35 -12 0 -35 -10 -50 -23 -24 -21 -26
-25 -11 -35 15 -10 15 -11 0 -11 -9 -1 -19 -7 -22 -15 -4 -9 -16 -13 -34 -11
-41 4 -66 -12 -59 -39 5 -19 -2 -26 -39 -45 -68 -34 -84 -61 -79 -128 3 -45 0
-61 -18 -87 -12 -17 -25 -33 -29 -36 -4 -3 -12 -32 -18 -65 -12 -68 -38 -108
-70 -113 -40 -6 -50 -39 -55 -172 -2 -75 -8 -126 -14 -128 -7 -2 -4 -18 9 -41
14 -27 21 -66 25 -142 10 -196 12 -218 24 -254 7 -20 9 -47 6 -61 -5 -20 -3
-27 14 -31 23 -6 60 -81 64 -128 1 -16 7 -40 14 -52 7 -12 12 -31 12 -42 0
-11 9 -26 19 -33 11 -8 23 -27 27 -43 4 -17 15 -41 26 -54 10 -13 18 -30 18
-37 0 -7 9 -15 19 -19 11 -3 21 -12 24 -19 7 -19 -16 -99 -32 -112 -12 -9 -12
-17 -4 -40 6 -16 14 -38 19 -49 17 -47 10 -115 -15 -135 -4 -3 -22 -25 -40
-50 -19 -25 -50 -61 -68 -80 -19 -19 -47 -51 -63 -70 -48 -56 -59 -21 -34 107
9 45 -19 45 -42 1 -9 -18 -22 -36 -29 -40 -18 -11 -35 -90 -43 -195 l-7 -88
-42 2 c-24 1 -55 8 -70 16 -16 8 -81 27 -146 42 -65 16 -120 32 -123 36 -3 5
-14 14 -25 19 -19 11 -19 4 -19 -379 l0 -391 25 -6 c13 -3 29 -12 36 -20 6 -8
21 -14 33 -14 12 0 27 -9 34 -20 7 -11 20 -20 30 -20 28 0 59 -27 65 -58 3
-16 16 -34 31 -41 14 -8 22 -19 19 -27 -3 -8 0 -14 6 -14 6 0 11 6 11 13 0 6
6 2 13 -9 33 -57 97 -147 97 -136 0 7 5 12 10 12 6 0 10 -9 10 -20 0 -11 7
-23 15 -26 8 -4 15 -17 15 -30 0 -18 -6 -24 -21 -24 -22 0 -21 -12 9 -80 8
-19 16 -38 16 -42 2 -17 16 -19 23 -2 4 10 17 29 30 42 l23 23 44 -46 c42 -44
56 -78 48 -117 -2 -10 -12 -18 -23 -18 -10 0 -19 -7 -19 -15 0 -8 5 -15 10
-15 6 0 10 -9 10 -20 0 -24 -13 -26 -30 -5 -11 13 -15 13 -21 3 -5 -7 -9 -16
-9 -20 0 -5 1196 -8 2658 -7 l2657 1 -90 24 c-49 13 -117 30 -150 38 -155 38
-199 53 -222 81 l-24 27 27 46 c15 26 40 59 54 74 15 14 33 40 40 57 7 17 16
31 20 31 4 0 10 17 14 38 13 79 40 83 38 5 0 -50 25 -106 54 -117 21 -8 53 11
63 37 5 12 12 67 15 122 5 67 14 112 27 138 21 41 26 97 8 97 -10 0 -7 79 7
157 4 18 3 44 0 58 l-6 25 -38 -39 c-36 -38 -39 -39 -77 -31 -22 5 -43 10 -46
10 -3 0 -11 -18 -18 -40 -6 -22 -17 -40 -22 -40 -6 0 -8 -7 -5 -16 3 -9 2 -12
-5 -9 -6 4 -13 -2 -16 -13 -4 -15 -16 -21 -56 -25 -56 -5 -70 -1 -47 13 26 16
-1 25 -28 9 -37 -21 -50 -14 -57 29 -12 71 -25 91 -62 98 -24 5 -39 2 -52 -10
-22 -20 -35 -20 -51 -1 -18 22 -29 18 -36 -12 -4 -16 -10 -32 -13 -38 -10 -15
-28 -76 -36 -118 -6 -39 -25 -42 -25 -5 0 12 -7 29 -15 38 -11 13 -16 46 -19
127 -2 60 -8 119 -15 131 -10 20 -9 23 13 31 33 13 39 26 48 96 20 151 21 180
4 194 -15 12 -18 10 -28 -16 -7 -18 -23 -34 -40 -41 -19 -7 -28 -17 -28 -33 0
-12 -7 -30 -15 -39 -9 -10 -23 -60 -31 -111 -9 -52 -22 -104 -30 -116 -8 -12
-14 -29 -14 -37 0 -8 -5 -27 -12 -41 -9 -20 -18 -25 -48 -25 -37 0 -37 1 -43
46 -2 26 -9 49 -14 53 -5 3 -14 22 -19 41 -8 30 -16 37 -56 49 -37 11 -47 19
-52 41 -3 19 -13 30 -31 34 -17 4 -25 13 -25 29 0 24 32 90 59 122 20 23 46
119 36 135 -4 6 0 21 8 33 8 12 18 37 21 55 20 89 137 154 284 157 46 2 89 8
95 14 6 6 27 11 46 11 37 1 71 19 71 38 0 6 5 12 12 14 15 5 19 36 25 198 4
115 2 140 -13 168 -21 40 -50 42 -59 5 -10 -47 -94 -122 -103 -94 -2 6 -8 9
-13 5 -5 -3 -9 6 -9 20 0 13 5 26 10 28 6 2 17 23 26 46 8 24 26 54 41 66 24
21 28 34 33 100 6 71 9 78 43 111 37 36 41 46 38 98 -1 21 4 30 19 34 10 3 22
14 26 25 5 16 8 18 15 7 6 -10 9 -8 9 8 0 13 12 49 27 80 35 73 32 70 43 53 6
-10 7 -3 4 21 -4 22 -2 39 5 43 14 9 15 53 1 61 -6 4 -7 13 -1 23 10 19 -5 56
-19 47 -5 -3 -15 4 -23 16 -15 20 -16 20 -42 3 -20 -13 -23 -19 -13 -25 10 -7
9 -9 -4 -9 -22 0 -48 10 -48 20 0 4 14 10 30 14 33 6 41 31 12 38 -9 3 -26 1
-37 -3 -11 -4 -37 -8 -58 -8 -31 -1 -40 3 -44 19 -4 16 -14 20 -43 20 -21 0
-66 7 -100 16 -64 16 -90 10 -90 -22 0 -8 -4 -14 -9 -14 -14 0 -30 -78 -22
-108 4 -15 14 -27 21 -27 8 0 20 -11 26 -24 15 -30 32 -41 65 -41 15 0 32 -7
39 -15 7 -8 19 -15 27 -15 17 0 83 -49 83 -62 0 -5 12 -19 27 -32 18 -16 24
-28 20 -40 -11 -28 -56 -12 -99 34 -20 22 -40 40 -44 40 -4 0 -28 17 -53 38
-45 37 -86 62 -101 62 -14 0 -20 -31 -10 -51 6 -10 19 -19 29 -19 9 0 28 -11
41 -25 13 -14 29 -25 37 -25 7 0 13 -8 13 -19 0 -10 9 -21 19 -24 14 -3 20
-16 23 -48 3 -24 6 -50 9 -57 2 -8 -4 -19 -13 -25 -37 -25 -104 43 -112 114
-4 39 -31 51 -83 36 -36 -11 -67 -3 -60 16 2 6 -2 29 -11 50 -10 27 -13 59
-10 108 5 69 5 71 -26 100 -17 16 -39 32 -48 35 -10 3 -18 10 -18 15 0 5 -8
18 -17 29 -10 11 -26 29 -35 40 -10 11 -29 20 -43 20 -19 0 -25 5 -25 21 0 27
-35 85 -56 93 -11 4 -14 14 -9 35 8 37 -24 114 -54 130 -17 9 -20 21 -20 65 1
67 -13 114 -57 187 -32 53 -33 59 -33 160 0 57 -5 118 -10 134 -13 45 -33 85
-42 85 -5 0 -16 15 -25 33 -20 37 -30 46 -102 87 -96 56 -235 74 -279 38 -9
-7 -28 -6 -61 1 -30 8 -79 9 -132 5 -47 -3 -115 -7 -152 -8 -48 -2 -73 -7 -87
-20 -27 -25 -80 -38 -197 -49 -28 -3 -68 -15 -90 -26 -21 -12 -46 -21 -55 -21
-9 0 -22 -7 -29 -15 -6 -8 -22 -17 -33 -21 -28 -9 -256 -239 -268 -271 -7 -20
-12 -22 -28 -13 -11 5 -27 7 -35 4 -9 -4 -18 0 -22 9 -7 19 -34 11 -34 -9 0
-8 9 -14 19 -14 10 0 22 -7 25 -16 9 -24 7 -80 -4 -109 -7 -20 -6 -32 6 -50
15 -23 15 -29 -1 -79 -13 -40 -14 -59 -6 -73 5 -11 8 -36 4 -56 -4 -29 -2 -36
14 -41 15 -5 22 -18 26 -54 3 -26 14 -62 23 -81 20 -39 23 -123 6 -129 -7 -2
-12 -10 -12 -17 0 -7 -13 -24 -30 -38 -25 -21 -31 -37 -41 -96 -6 -39 -8 -75
-5 -80 3 -5 -1 -22 -9 -38 -9 -15 -19 -39 -24 -53 -5 -14 -21 -32 -35 -39 -23
-13 -31 -13 -59 1 -27 13 -34 13 -45 2 -19 -21 -31 -17 -38 11 -3 14 -11 25
-18 25 -19 0 18 20 39 20 11 1 36 14 55 30 19 17 40 30 47 30 7 0 13 9 13 19
0 17 -4 18 -42 9 -24 -5 -44 -13 -46 -19 -6 -16 -72 -11 -72 5 0 8 5 18 10 21
6 4 10 14 9 23 -3 32 1 39 26 50 36 17 35 68 -1 84 -25 12 -29 10 -68 -35 -41
-46 -66 -59 -66 -34 0 6 -5 4 -11 -5 -5 -10 -16 -18 -22 -18 -7 0 -20 -9 -30
-20 -21 -25 -28 -25 -60 0 l-26 21 -40 -21 c-22 -11 -47 -20 -54 -20 -8 0 -17
-9 -20 -20 -3 -12 -14 -20 -25 -20 -11 0 -23 -6 -25 -12 -4 -10 -6 -10 -6 0
-1 17 -36 15 -51 -3 -6 -8 -9 -23 -5 -35 5 -14 1 -22 -12 -27 -10 -3 -26 -13
-36 -21 -25 -22 -41 -2 -33 41 7 37 38 73 55 62 6 -3 11 -2 11 4 0 5 -4 12 -9
15 -4 3 -11 20 -15 37 -5 26 -2 35 16 48 13 9 25 16 28 17 3 0 13 4 23 8 9 5
28 5 41 2 26 -6 83 10 72 21 -10 10 -225 15 -286 7 -30 -4 -47 -9 -37 -11 9
-3 17 -9 17 -14 0 -6 9 -7 21 -4 27 9 69 -13 69 -36 0 -30 -34 -59 -80 -68
-133 -27 -155 -32 -164 -41 -7 -7 -3 -10 11 -10 11 0 24 -8 27 -17 6 -15 8
-15 16 -3 8 13 10 12 10 -2 0 -19 -36 -48 -61 -48 -26 0 -90 -65 -77 -78 8 -8
7 -16 -2 -27 -16 -19 -55 -16 -55 5 0 8 6 14 13 12 24 -4 11 16 -18 28 -22 9
-37 10 -57 2 -16 -6 -39 -12 -52 -14 -20 -3 -23 -9 -27 -53 -2 -35 -1 -45 6
-35 7 11 10 12 10 2 0 -10 4 -9 16 3 11 11 20 13 27 6 10 -10 -13 -41 -31 -41
-15 0 -52 -45 -52 -63 0 -24 -38 -36 -75 -26 -24 7 -33 5 -42 -8 -7 -9 -13
-23 -13 -31 0 -12 -2 -12 -17 -1 -13 11 -17 11 -20 2 -6 -18 -30 -16 -41 4
-18 31 -31 -18 -29 -105 1 -44 -3 -86 -8 -91 -10 -10 -62 3 -92 22 -7 5 -17 5
-23 2 -6 -3 -10 0 -10 7 0 7 -18 24 -40 38 -44 27 -78 84 -86 147 -10 73 -14
83 -33 83 -10 0 -29 8 -41 18 -19 15 -21 22 -11 40 17 33 13 59 -16 104 -23
34 -28 52 -27 100 1 45 6 62 20 73 11 7 15 17 11 21 -4 5 -12 3 -16 -5 -18
-29 -27 124 -12 189 8 32 9 33 10 8 1 -27 20 -41 22 -15 0 6 4 2 9 -10 6 -16
18 -23 35 -23 23 0 25 -4 26 -42 1 -28 3 -34 6 -18 3 14 9 29 13 34 5 5 7 21
4 35 -4 19 2 34 24 57 27 30 28 32 9 43 -14 9 -18 21 -15 47 2 19 0 34 -4 34
-4 0 -8 7 -8 15 0 8 5 15 10 15 6 0 1 9 -10 20 -11 11 -24 20 -30 20 -19 0
-10 37 15 60 15 14 25 35 25 52 0 23 4 28 25 28 22 0 25 5 31 50 8 58 17 68
67 72 31 2 36 5 31 20 -5 15 1 18 39 18 24 0 59 5 77 11 29 11 34 10 49 -10
15 -19 29 -23 87 -25 95 -4 135 -33 148 -107 10 -61 46 -103 96 -114 17 -4 34
-14 37 -22 3 -8 15 -19 27 -23 15 -6 17 -9 5 -9 -34 -2 -71 -87 -42 -98 7 -3
13 -16 13 -29 0 -53 100 -15 136 52 l19 35 -27 24 c-43 37 -35 80 18 94 25 6
29 13 32 49 2 31 10 47 32 65 21 18 26 27 17 36 -15 15 72 98 133 128 25 12
54 30 65 40 11 10 32 26 46 35 15 9 48 53 74 98 44 73 55 85 77 81 4 0 15 15
23 35 14 35 17 36 51 29 52 -9 87 9 108 56 10 22 31 54 47 70 16 16 29 36 29
44 0 7 15 29 33 48 44 47 93 117 99 143 6 25 -16 41 -73 53 l-34 8 40 17 c59
24 67 42 48 107 -9 30 -16 77 -17 104 l-1 50 42 3 c27 2 51 -3 65 -12 29 -21
48 -20 63 1 8 11 30 18 60 20 26 2 56 10 68 18 12 8 40 15 63 15 25 0 44 5 47
13 3 9 9 9 30 -2 29 -16 57 -9 57 14 0 10 -10 15 -29 15 -60 0 -77 24 -47 65
11 15 28 19 85 21 93 3 124 -6 126 -34 1 -12 12 -33 25 -47 17 -19 27 -22 41
-15 36 20 63 12 78 -22 25 -57 44 -77 74 -78 35 0 90 -51 81 -74 -3 -9 -2 -16
2 -17 5 -1 24 -2 43 -4 18 -2 36 -7 40 -12 3 -6 33 -13 66 -16 33 -3 65 -6 70
-7 6 -1 34 -2 62 -1 48 1 54 4 69 32 11 23 19 28 27 20 6 -6 21 -11 34 -11 13
0 31 -4 41 -9 31 -18 160 -43 182 -36 26 8 87 -4 71 -15 -8 -4 0 -10 20 -14
40 -8 51 2 53 45 1 28 8 36 41 53 36 19 41 26 48 71 13 76 18 81 71 77 26 -2
59 -10 74 -18 15 -8 35 -14 44 -14 28 0 69 -22 136 -72 35 -27 67 -48 72 -48
21 0 61 25 75 46 13 20 13 27 0 58 -9 20 -21 36 -29 36 -7 0 -24 9 -38 19 -13
11 -37 23 -52 27 -14 3 -31 14 -36 24 -5 10 -23 21 -40 25 -20 4 -30 13 -30
25 0 11 -11 22 -30 29 -20 6 -30 17 -30 30 0 21 -44 41 -91 41 -21 0 -39 13
-74 53 -26 28 -51 62 -56 75 -5 12 -20 27 -33 32 -14 5 -34 18 -45 29 -36 36
-58 43 -103 30 -45 -12 -72 -9 -156 18 -50 15 -56 15 -82 0 -15 -10 -35 -17
-43 -17 -9 0 -17 -5 -19 -12 -2 -6 -12 -9 -21 -5 -19 7 -34 60 -41 147 -2 35
-9 66 -15 68 -6 2 -11 15 -11 28 0 36 -27 30 -73 -17 -30 -33 -41 -39 -48 -28
-6 11 -11 11 -21 1 -9 -9 -8 -14 5 -24 12 -9 14 -17 7 -28 -6 -9 -10 -10 -10
-3 0 7 -17 1 -41 -15 -27 -18 -42 -36 -46 -55 -3 -16 -12 -31 -19 -34 -15 -6
-47 22 -50 44 -4 23 -14 29 -24 13 -5 -8 -15 -15 -22 -16 -7 0 -21 -5 -32 -9
-10 -4 -21 -4 -25 2 -10 15 -106 43 -109 33 -6 -17 -48 -10 -130 21 -15 6 -31
5 -43 -2 -40 -21 -93 53 -79 111 4 19 8 31 9 26 1 -5 9 -2 20 8 12 11 17 27
15 48 -4 29 -2 30 25 25 32 -7 41 5 41 52 0 21 -8 31 -35 44 -40 19 -110 23
-121 6 -4 -8 -9 -7 -15 2 -7 11 -9 10 -9 -5z m0 -686 c0 -5 -2 -10 -4 -10 -3
0 -8 5 -11 10 -3 6 -1 10 4 10 6 0 11 -4 11 -10z m-2132 -1748 c2 -7 -7 -12
-23 -12 -22 0 -24 2 -13 15 15 16 30 15 36 -3z m4397 -205 c1 -1 5 -19 9 -39
6 -31 4 -37 -14 -43 -25 -8 -43 3 -36 22 4 9 -1 17 -14 20 -20 5 -27 33 -13
47 7 6 63 1 68 -7z m-131 -32 c-4 -8 -8 -15 -10 -15 -2 0 -4 7 -4 15 0 8 4 15
10 15 5 0 7 -7 4 -15z m-2654 -134 c0 -26 -13 -33 -44 -25 -21 5 -24 9 -15 25
13 26 59 26 59 0z m-110 -11 c0 -11 -6 -20 -13 -20 -7 0 -28 -8 -47 -18 -53
-28 -86 -34 -100 -18 -8 11 -9 20 0 36 15 28 44 39 108 39 46 1 52 -1 52 -19z
m-500 -10 c0 -11 -7 -20 -15 -20 -8 0 -15 9 -15 20 0 11 7 20 15 20 8 0 15 -9
15 -20z m510 -270 c0 -14 -15 -19 -29 -10 -17 10 -5 31 14 23 8 -3 15 -9 15
-13z m2789 -496 c-8 -3 36 -46 56 -55 19 -7 19 -8 -2 -8 -58 -2 -92 34 -77 81
6 20 7 21 17 2 6 -10 9 -20 6 -20z m-4399 -474 c0 -18 -39 -38 -82 -42 -63 -7
-76 8 -38 42 28 25 34 26 75 17 25 -6 45 -13 45 -17z m396 -355 c11 -7 35 -40
52 -74 18 -33 37 -63 42 -66 5 -3 30 -38 55 -77 33 -50 48 -85 52 -119 5 -41
3 -49 -11 -49 -13 0 -16 -10 -16 -48 0 -26 5 -53 12 -60 13 -13 -5 -42 -27
-42 -15 0 -27 -109 -15 -148 5 -15 22 -71 39 -125 42 -131 41 -156 -4 -135
-12 5 -32 27 -43 47 -12 20 -31 46 -43 57 -11 10 -37 44 -57 74 -43 65 -89
126 -117 157 -53 56 -65 72 -65 81 0 6 -6 15 -12 19 -16 10 -58 69 -58 81 0 5
-9 17 -20 27 -11 10 -20 22 -20 26 0 4 24 36 53 71 57 67 94 155 84 204 -5 26
10 90 26 111 10 14 61 7 93 -12z m259 -422 c0 -5 8 -17 18 -27 9 -10 17 -24
17 -32 0 -8 7 -17 15 -20 22 -9 18 -38 -9 -63 -33 -31 -45 -20 -38 35 4 37 1
49 -12 56 -19 11 -23 72 -3 66 6 -3 12 -9 12 -15z m4045 -152 c0 -6 -4 -13
-10 -16 -5 -3 -10 1 -10 9 0 9 5 16 10 16 6 0 10 -4 10 -9z m-4850 -206 c10
-12 10 -15 -4 -15 -9 0 -16 7 -16 15 0 8 2 15 4 15 2 0 9 -7 16 -15z"/>
<path d="M5276 5163 c-25 -13 -49 -29 -53 -37 -10 -17 -98 -56 -127 -56 -12 0
-33 -10 -45 -21 -22 -21 -23 -21 -17 -2 4 12 -1 27 -14 41 -26 28 -29 27 -70
-3 -18 -13 -48 -29 -66 -35 -51 -17 -58 -90 -9 -90 23 0 36 -18 40 -54 1 -11
8 -22 16 -25 7 -2 36 -28 64 -57 44 -46 56 -53 97 -57 47 -4 78 12 78 41 0 24
21 66 28 55 5 -8 12 -9 22 -2 12 7 13 11 2 18 -10 6 -3 16 29 40 24 17 48 31
53 31 6 0 5 4 -3 9 -10 7 2 17 45 37 32 16 59 35 59 42 0 8 11 24 26 35 14 12
32 34 41 48 15 24 15 27 -1 41 -11 9 -45 17 -84 20 -54 3 -74 0 -111 -19z"/>
<path d="M5030 5135 c-14 -16 -10 -18 14 -9 9 3 16 10 16 15 0 14 -16 11 -30
-6z"/>
<path d="M2421 5094 c0 -11 3 -14 6 -6 3 7 2 16 -1 19 -3 4 -6 -2 -5 -13z"/>
<path d="M1437 4680 c4 -17 14 -20 54 -20 27 0 49 5 49 10 0 6 -15 10 -34 10
-19 0 -38 5 -41 10 -12 19 -33 11 -28 -10z"/>
<path d="M1350 4640 c0 -11 7 -20 15 -20 8 0 15 9 15 20 0 11 -7 20 -15 20 -8
0 -15 -9 -15 -20z"/>
<path d="M1253 4492 c-15 -13 -20 -25 -16 -45 6 -32 5 -31 43 -12 32 17 36 26
20 56 -13 24 -21 24 -47 1z"/>
<path d="M2613 4360 c-23 -10 -46 -43 -36 -54 15 -15 43 -5 49 19 3 14 10 25
15 25 5 0 9 5 9 10 0 12 -7 12 -37 0z"/>
<path d="M4338 4343 c7 -3 16 -2 19 1 4 3 -2 6 -13 5 -11 0 -14 -3 -6 -6z"/>
<path d="M2640 4310 c0 -5 5 -10 10 -10 6 0 10 5 10 10 0 6 -4 10 -10 10 -5 0
-10 -4 -10 -10z"/>
<path d="M940 4091 c0 -6 5 -13 10 -16 6 -3 10 1 10 9 0 9 -4 16 -10 16 -5 0
-10 -4 -10 -9z"/>
<path d="M261 4060 c-69 -34 -84 -98 -30 -128 17 -9 50 -31 72 -47 54 -40 174
-80 210 -71 24 6 27 11 27 50 0 26 6 48 15 56 9 8 13 21 9 35 -4 16 1 30 15
44 23 23 27 51 9 69 -14 14 -67 16 -102 2 -14 -5 -55 -12 -91 -16 -50 -5 -69
-3 -83 8 -15 13 -21 13 -51 -2z"/>
<path d="M4864 3244 c3 -8 1 -24 -4 -34 -17 -32 3 -65 40 -68 18 -1 37 2 44 7
6 5 22 11 36 13 14 1 25 10 25 18 0 11 -17 17 -62 23 -58 8 -63 11 -63 33 0
13 -5 24 -11 24 -6 0 -8 -7 -5 -16z"/>
<path d="M1893 3150 c-33 -13 -28 -30 7 -30 17 0 43 -6 58 -14 28 -15 156 -26
167 -14 4 3 2 15 -4 25 -7 15 -29 22 -99 31 -102 14 -100 14 -129 2z"/>
<path d="M4915 3121 c-41 -5 -50 -10 -50 -26 0 -39 53 -51 120 -25 26 10 26
10 8 35 -10 13 -20 24 -23 23 -3 -1 -27 -4 -55 -7z"/>
<path d="M745 2859 c-10 -14 -1 -21 19 -13 9 3 13 10 10 15 -7 12 -21 11 -29
-2z"/>
<path d="M783 2800 c-13 -5 -23 -14 -23 -21 0 -6 7 -8 16 -5 9 3 19 6 24 6 4
0 10 7 14 15 6 17 1 18 -31 5z"/>
<path d="M1389 2683 c-12 -15 -12 -16 4 -10 10 4 25 7 33 7 8 0 14 5 14 10 0
16 -36 11 -51 -7z"/>
<path d="M1220 2629 c-35 -22 -35 -22 -11 -31 30 -11 83 11 79 32 -5 23 -29
22 -68 -1z"/>
<path d="M1225 2507 c-4 -10 -5 -21 -1 -24 10 -10 18 4 13 24 -4 17 -4 17 -12
0z"/>
<path d="M1107 2405 c-4 -8 -2 -17 3 -20 6 -4 10 3 10 14 0 25 -6 27 -13 6z"/>
<path d="M1182 2400 c-18 -29 -15 -48 4 -22 8 12 14 27 12 32 -2 6 -9 1 -16
-10z"/>
<path d="M631 2384 c0 -11 3 -14 6 -6 3 7 2 16 -1 19 -3 4 -6 -2 -5 -13z"/>
<path d="M28 1782 c-26 -15 -40 -62 -20 -62 12 0 62 54 62 68 0 16 -10 15 -42
-6z"/>
<path d="M0 281 c0 -66 2 -71 30 -91 17 -12 30 -26 30 -32 0 -6 21 -33 48 -61
26 -28 57 -61 69 -74 18 -19 32 -23 83 -23 l62 0 -106 107 c-58 58 -106 112
-106 119 0 13 -30 41 -30 28 0 -5 -9 10 -19 33 -11 23 -29 46 -40 53 -20 10
-21 9 -21 -59z"/>
<path d="M500 30 c0 -5 7 -10 16 -10 8 0 12 5 9 10 -3 6 -10 10 -16 10 -5 0
-9 -4 -9 -10z"/>
</g>
</svg>
